<?xml version="1.0" encoding="UTF-8"?>
<svg id="Layer_2" data-name="Layer 2" xmlns="http://www.w3.org/2000/svg" viewBox="0 0 1490.87 311.05">
  <defs>
    <style>
      .cls-1 {
        fill: #b5aeae;
      }

      .cls-2 {
        fill: #aa1f24;
      }

      .cls-3 {
        fill: #313031;
      }
    </style>
  </defs>
  <g id="Layer_1-2" data-name="Layer 1">
    <g>
      <path class="cls-2" d="m118.79,94.91c-11.81,0-21.37,8.11-21.37,18.11,0,14.14,21.37,25.4,21.37,25.4,0,0,21.35-11.26,21.35-25.4,0-10-9.55-18.11-21.35-18.11Zm20.68,196.88c0-.22-.03-.44-.07-.65l-17.75-131.31c-.51-2.16-5.39-2.16-5.89-.08l-18.47,131.65h0c-.02.14-.02.26-.02.39,0,.1.07.2.07.32-.02.33-.09.68-.09,1.04,0,9.89,9.45,17.89,21.11,17.89s21.11-8,21.11-17.89c0-.36-.07-.69-.1-1.04.02-.11.09-.22.09-.32ZM306.2,39.54C288.48-4.39,207.31-13.03,124.93,20.25,42.53,53.52-8.63,115.85,1.21,162.44c11.07,52.37,79.93,34.24,79.93,34.24-65.22-2.85-62.32-44.23-62.32-44.23.32-35.7,35.36-73.05,90.01-99.32,68.7-33.03,139.58-30.48,158.31,5.71,18.62,36.01-21.43,91.73-89.53,124.82,3.85-1.37,7.7-2.82,11.55-4.37,82.38-33.26,134.8-95.84,117.05-139.75Z"/>
      <g>
        <path class="cls-2" d="m376.59,31.84c4.26,0,7.9,1.54,10.94,4.62,3.04,3.09,4.57,6.82,4.57,11.2s-1.51,8.01-4.52,11.07c-3.01,3.05-6.62,4.58-10.81,4.58s-7.99-1.56-11.03-4.67c-3.04-3.11-4.56-6.89-4.56-11.33s1.5-7.91,4.52-10.93c3.01-3.02,6.65-4.53,10.9-4.53Zm-12.13,39.81h24.26v96.7h-24.26v-96.7Z"/>
        <path class="cls-3" d="m413.34,37.61h26.4c14.28,0,24.57,1.32,30.88,3.96,6.31,2.63,11.29,6.9,14.93,12.79,3.64,5.9,5.47,12.96,5.47,21.2,0,9.13-2.39,16.71-7.15,22.75-4.77,6.04-11.24,10.25-19.42,12.62-4.8,1.37-13.54,2.04-26.22,2.04v55.37h-24.89V37.61Zm24.89,51.1h7.91c6.22,0,10.54-.44,12.98-1.33,2.43-.89,4.34-2.36,5.73-4.41,1.39-2.06,2.09-4.54,2.09-7.45,0-5.06-1.96-8.74-5.87-11.06-2.84-1.73-8.12-2.59-15.82-2.59h-7.02v26.84Z"/>
        <path class="cls-3" d="m507.02,71.66h20.8v12.18c2.25-4.8,5.24-8.45,8.98-10.93,3.73-2.49,7.82-3.73,12.26-3.73,3.14,0,6.43.83,9.87,2.49l-7.56,20.88c-2.84-1.42-5.18-2.13-7.02-2.13-3.73,0-6.89,2.31-9.47,6.93s-3.87,13.68-3.87,27.2l.09,4.71v39.11h-24.09v-96.7Z"/>
        <path class="cls-3" d="m616.34,69.17c9.12,0,17.7,2.28,25.73,6.84,8.03,4.56,14.29,10.76,18.8,18.58,4.5,7.82,6.75,16.26,6.75,25.33s-2.27,17.66-6.8,25.6c-4.53,7.94-10.71,14.15-18.53,18.62-7.82,4.47-16.44,6.71-25.86,6.71-13.86,0-25.7-4.93-35.5-14.8-9.81-9.87-14.71-21.85-14.71-35.95,0-15.11,5.54-27.7,16.62-37.77,9.72-8.77,20.89-13.15,33.5-13.15Zm.4,22.84c-7.54,0-13.81,2.62-18.83,7.87-5.01,5.24-7.52,11.95-7.52,20.13s2.48,15.23,7.43,20.44c4.96,5.21,11.23,7.82,18.83,7.82s13.92-2.63,18.96-7.91c5.04-5.27,7.57-12.06,7.57-20.36s-2.48-15.03-7.43-20.22c-4.96-5.18-11.29-7.78-19.01-7.78Z"/>
        <path class="cls-3" d="m758.89,71.66h24.18v82.83c0,16.35-3.29,28.38-9.87,36.08-8.83,10.42-22.13,15.64-39.9,15.64-9.48,0-17.45-1.19-23.91-3.56-6.46-2.37-11.91-5.85-16.35-10.44-4.45-4.59-7.73-10.18-9.87-16.75h26.75c2.37,2.73,5.42,4.78,9.15,6.17,3.73,1.39,8.15,2.09,13.24,2.09,6.52,0,11.76-1.01,15.73-3.02,3.97-2.02,6.77-4.62,8.4-7.82,1.63-3.2,2.44-8.71,2.44-16.53-4.27,4.27-8.74,7.33-13.42,9.2-4.68,1.87-9.99,2.8-15.91,2.8-12.98,0-23.94-4.68-32.88-14.04-8.95-9.36-13.42-21.21-13.42-35.55,0-15.35,4.74-27.67,14.22-36.97,8.59-8.41,18.84-12.62,30.75-12.62,5.57,0,10.83,1.02,15.77,3.07s9.91,5.4,14.89,10.09v-10.66Zm-25.15,20.17c-7.64,0-13.95,2.56-18.93,7.69-4.97,5.12-7.46,11.57-7.46,19.33s2.54,14.67,7.64,19.83c5.09,5.15,11.49,7.73,19.19,7.73s13.73-2.51,18.62-7.55c4.89-5.04,7.33-11.64,7.33-19.82s-2.46-14.6-7.37-19.64c-4.92-5.04-11.26-7.56-19.02-7.56Z"/>
        <path class="cls-3" d="m801.91,71.66h20.8v12.18c2.25-4.8,5.24-8.45,8.98-10.93,3.73-2.49,7.82-3.73,12.26-3.73,3.14,0,6.43.83,9.87,2.49l-7.56,20.88c-2.84-1.42-5.18-2.13-7.02-2.13-3.73,0-6.89,2.31-9.47,6.93-2.58,4.62-3.87,13.68-3.87,27.2l.09,4.71v39.11h-24.09v-96.7Z"/>
        <path class="cls-3" d="m937.18,71.66h24.26v96.7h-24.26v-10.22c-4.74,4.5-9.49,7.74-14.25,9.73-4.76,1.98-9.93,2.97-15.49,2.97-12.49,0-23.29-4.85-32.4-14.53-9.11-9.69-13.67-21.73-13.67-36.13s4.41-27.16,13.23-36.7c8.82-9.54,19.53-14.31,32.13-14.31,5.8,0,11.24,1.1,16.33,3.29,5.09,2.19,9.8,5.48,14.12,9.86v-10.66Zm-25.51,19.91c-7.5,0-13.73,2.65-18.69,7.95-4.96,5.3-7.44,12.1-7.44,20.4s2.52,15.23,7.57,20.62,11.26,8.08,18.65,8.08,13.93-2.65,18.96-7.95c5.02-5.3,7.53-12.25,7.53-20.84s-2.51-15.22-7.53-20.44c-5.02-5.21-11.37-7.82-19.05-7.82Z"/>
        <path class="cls-3" d="m985.79,71.66h24.26v11.11c4.15-4.56,8.76-7.97,13.84-10.22,5.06-2.25,10.59-3.38,16.59-3.38s11.5,1.48,16.36,4.45c4.87,2.96,8.78,7.28,11.74,12.98,3.85-5.69,8.58-10.01,14.18-12.98,5.61-2.96,11.73-4.45,18.37-4.45s12.93,1.6,18.14,4.8c5.22,3.2,8.97,7.37,11.26,12.53,2.28,5.15,3.42,13.54,3.42,25.15v56.7h-24.44v-49.06c0-10.96-1.37-18.38-4.08-22.26-2.73-3.88-6.82-5.82-12.27-5.82-4.15,0-7.87,1.19-11.16,3.56-3.28,2.37-5.73,5.64-7.33,9.82-1.6,4.18-2.4,10.89-2.4,20.13v43.64h-24.44v-46.83c0-8.65-.64-14.92-1.91-18.8-1.28-3.88-3.19-6.77-5.75-8.67-2.55-1.89-5.64-2.84-9.27-2.84-4.04,0-7.71,1.2-11.01,3.6-3.3,2.4-5.76,5.77-7.39,10.09-1.63,4.32-2.45,11.14-2.45,20.44v43.02h-24.26v-96.7Z"/>
        <path class="cls-3" d="m1156.88,71.66h24.26v11.11c4.15-4.56,8.76-7.97,13.84-10.22,5.06-2.25,10.59-3.38,16.59-3.38s11.5,1.48,16.36,4.45c4.87,2.96,8.78,7.28,11.74,12.98,3.85-5.69,8.58-10.01,14.18-12.98,5.61-2.96,11.73-4.45,18.37-4.45s12.93,1.6,18.14,4.8c5.22,3.2,8.97,7.37,11.26,12.53,2.28,5.15,3.42,13.54,3.42,25.15v56.7h-24.44v-49.06c0-10.96-1.37-18.38-4.09-22.26-2.73-3.88-6.82-5.82-12.27-5.82-4.15,0-7.87,1.19-11.16,3.56-3.28,2.37-5.73,5.64-7.33,9.82-1.6,4.18-2.4,10.89-2.4,20.13v43.64h-24.44v-46.83c0-8.65-.64-14.92-1.91-18.8-1.28-3.88-3.19-6.77-5.75-8.67-2.55-1.89-5.64-2.84-9.27-2.84-4.04,0-7.71,1.2-11.01,3.6-3.3,2.4-5.76,5.77-7.39,10.09-1.63,4.32-2.45,11.14-2.45,20.44v43.02h-24.26v-96.7Z"/>
        <path class="cls-3" d="m1425.02,127.03h-77.95c1.13,6.87,4.14,12.34,9.02,16.4,4.89,4.06,11.12,6.09,18.71,6.09,9.07,0,16.86-3.17,23.38-9.51l20.44,9.59c-5.1,7.23-11.2,12.58-18.31,16.04-7.11,3.47-15.55,5.2-25.33,5.2-15.17,0-27.52-4.79-37.06-14.35-9.54-9.57-14.31-21.55-14.31-35.95s4.76-27,14.27-36.75c9.51-9.75,21.43-14.62,35.77-14.62,15.23,0,27.61,4.87,37.15,14.62,9.54,9.75,14.31,22.62,14.31,38.62l-.09,4.62Zm-24.26-19.11c-1.6-5.39-4.76-9.78-9.48-13.15-4.71-3.38-10.19-5.07-16.42-5.07-6.76,0-12.7,1.9-17.8,5.69-3.2,2.37-6.17,6.55-8.9,12.54h52.61Z"/>
        <path class="cls-3" d="m1438.98,71.66h20.8v12.18c2.25-4.8,5.24-8.45,8.97-10.93,3.74-2.49,7.82-3.73,12.27-3.73,3.14,0,6.43.83,9.86,2.49l-7.55,20.88c-2.84-1.42-5.19-2.13-7.02-2.13-3.74,0-6.89,2.31-9.47,6.93-2.57,4.62-3.86,13.68-3.86,27.2l.09,4.71v39.11h-24.08v-96.7Z"/>
        <g>
          <path class="cls-1" d="m362.06,215.94h7.22l16.07,25.9,15.81-25.9h7.26l-19.89,32.78v30.01h-6.19v-30.01l-20.27-32.78Z"/>
          <path class="cls-1" d="m439.75,231.09c7.15,0,13.08,2.59,17.79,7.77,4.28,4.72,6.41,10.32,6.41,16.78s-2.26,12.16-6.78,17.01c-4.52,4.85-10.33,7.28-17.42,7.28s-12.95-2.42-17.47-7.28c-4.52-4.85-6.78-10.52-6.78-17.01s2.14-12.01,6.41-16.73c4.71-5.21,10.65-7.81,17.83-7.81Zm-.02,5.84c-4.97,0-9.24,1.84-12.81,5.51s-5.36,8.11-5.36,13.32c0,3.36.81,6.49,2.44,9.39,1.63,2.9,3.82,5.14,6.6,6.72,2.77,1.58,5.81,2.37,9.12,2.37s6.35-.79,9.12-2.37c2.77-1.58,4.97-3.82,6.6-6.72,1.63-2.9,2.44-6.03,2.44-9.39,0-5.21-1.79-9.65-5.38-13.32-3.59-3.67-7.85-5.51-12.79-5.51Z"/>
          <path class="cls-1" d="m474.24,232.29h5.98v21.68c0,5.29.29,8.94.85,10.93.86,2.84,2.49,5.1,4.9,6.74s5.28,2.48,8.61,2.48,6.16-.8,8.49-2.41c2.32-1.61,3.92-3.72,4.81-6.34.6-1.8.9-5.6.9-11.4v-21.68h6.1v22.79c0,6.4-.75,11.22-2.24,14.47-1.5,3.24-3.74,5.79-6.74,7.62-3,1.83-6.77,2.75-11.29,2.75s-8.3-.92-11.33-2.75c-3.03-1.84-5.29-4.4-6.79-7.68-1.49-3.29-2.24-8.23-2.24-14.83v-22.37Z"/>
          <path class="cls-1" d="m525.88,232.29h6.1v6.79c1.82-2.68,3.74-4.68,5.76-6,2.02-1.32,4.13-1.98,6.32-1.98,1.65,0,3.41.53,5.29,1.58l-3.12,5.04c-1.25-.55-2.31-.81-3.16-.81-1.99,0-3.91.82-5.76,2.46-1.85,1.64-3.26,4.18-4.23,7.62-.74,2.65-1.11,8-1.11,16.05v15.71h-6.1v-46.44Z"/>
          <path class="cls-1" d="m579.58,215.94h12.51c7.17,0,12.01.32,14.51.95,3.59.88,6.52,2.69,8.79,5.44,2.28,2.74,3.41,6.2,3.41,10.35s-1.11,7.64-3.33,10.36c-2.22,2.72-5.28,4.54-9.18,5.48-2.85.68-8.17,1.02-15.96,1.02h-4.48v29.2h-6.27v-62.79Zm6.27,6.15v21.3l10.63.13c4.3,0,7.44-.39,9.43-1.18,1.99-.78,3.56-2.04,4.7-3.79,1.14-1.75,1.71-3.7,1.71-5.86s-.57-4.03-1.71-5.77c-1.14-1.75-2.64-2.99-4.5-3.73-1.86-.74-4.92-1.11-9.16-1.11h-11.1Z"/>
          <path class="cls-1" d="m628.11,232.29h6.1v6.79c1.82-2.68,3.74-4.68,5.76-6,2.02-1.32,4.13-1.98,6.32-1.98,1.65,0,3.41.53,5.29,1.58l-3.12,5.04c-1.25-.55-2.3-.81-3.16-.81-1.99,0-3.91.82-5.76,2.46-1.85,1.64-3.26,4.18-4.23,7.62-.74,2.65-1.11,8-1.11,16.05v15.71h-6.1v-46.44Z"/>
          <path class="cls-1" d="m678.65,231.09c7.15,0,13.08,2.59,17.79,7.77,4.28,4.72,6.41,10.32,6.41,16.78s-2.26,12.16-6.78,17.01c-4.52,4.85-10.33,7.28-17.42,7.28s-12.95-2.42-17.47-7.28-6.78-10.52-6.78-17.01,2.14-12.01,6.41-16.73c4.71-5.21,10.65-7.81,17.83-7.81Zm-.02,5.84c-4.97,0-9.24,1.84-12.81,5.51-3.57,3.67-5.36,8.11-5.36,13.32,0,3.36.81,6.49,2.44,9.39,1.63,2.9,3.83,5.14,6.6,6.72,2.77,1.58,5.81,2.37,9.12,2.37s6.35-.79,9.13-2.37c2.77-1.58,4.97-3.82,6.6-6.72,1.63-2.9,2.44-6.03,2.44-9.39,0-5.21-1.79-9.65-5.37-13.32-3.59-3.67-7.85-5.51-12.79-5.51Z"/>
          <path class="cls-1" d="m753.95,232.29h5.98v37.01c0,6.51-.57,11.28-1.71,14.3-1.57,4.27-4.28,7.56-8.15,9.86-3.87,2.31-8.52,3.46-13.96,3.46-3.98,0-7.56-.56-10.74-1.69-3.17-1.13-5.75-2.65-7.75-4.54-1.99-1.9-3.83-4.68-5.51-8.33h6.49c1.77,3.07,4.05,5.35,6.84,6.83,2.79,1.48,6.26,2.22,10.39,2.22s7.52-.76,10.32-2.27c2.8-1.52,4.81-3.43,6-5.72,1.2-2.3,1.8-6.01,1.8-11.13v-2.39c-2.25,2.85-5,5.03-8.25,6.55-3.25,1.52-6.69,2.29-10.34,2.29-4.27,0-8.29-1.06-12.05-3.18-3.76-2.12-6.67-4.98-8.71-8.56-2.05-3.59-3.08-7.53-3.08-11.82s1.07-8.3,3.2-12.02c2.14-3.71,5.09-6.65,8.87-8.81,3.78-2.16,7.76-3.24,11.94-3.24,3.48,0,6.72.72,9.72,2.15,3,1.44,5.9,3.81,8.69,7.11v-8.06Zm-17.63,4.57c-3.39,0-6.53.81-9.43,2.45-2.9,1.63-5.18,3.9-6.83,6.79-1.65,2.89-2.48,6.01-2.48,9.37,0,5.09,1.71,9.3,5.12,12.63,3.41,3.32,7.84,4.99,13.27,4.99s9.91-1.65,13.26-4.95c3.34-3.3,5.01-7.64,5.01-13.02,0-3.51-.77-6.63-2.3-9.37s-3.71-4.92-6.53-6.51c-2.82-1.6-5.85-2.39-9.09-2.39Z"/>
          <path class="cls-1" d="m770.46,232.29h6.1v6.79c1.82-2.68,3.74-4.68,5.76-6,2.02-1.32,4.13-1.98,6.32-1.98,1.65,0,3.41.53,5.29,1.58l-3.12,5.04c-1.25-.55-2.31-.81-3.16-.81-1.99,0-3.91.82-5.76,2.46-1.85,1.64-3.26,4.18-4.23,7.62-.74,2.65-1.11,8-1.11,16.05v15.71h-6.1v-46.44Z"/>
          <path class="cls-1" d="m845.29,232.29v46.44h-5.89v-7.99c-2.5,3.05-5.31,5.34-8.43,6.88-3.11,1.54-6.52,2.31-10.22,2.31-6.57,0-12.18-2.38-16.84-7.15-4.65-4.77-6.98-10.57-6.98-17.4s2.35-12.4,7.04-17.15c4.69-4.75,10.34-7.13,16.95-7.13,3.81,0,7.26.81,10.35,2.43,3.09,1.63,5.8,4.06,8.13,7.3v-8.54h5.89Zm-23.88,4.57c-3.32,0-6.39.81-9.21,2.45-2.81,1.63-5.05,3.93-6.72,6.88-1.66,2.96-2.49,6.09-2.49,9.38s.84,6.4,2.51,9.38c1.68,2.99,3.93,5.31,6.76,6.97,2.83,1.66,5.86,2.5,9.1,2.5s6.37-.83,9.29-2.48c2.93-1.65,5.18-3.88,6.76-6.69,1.58-2.82,2.37-5.98,2.37-9.51,0-5.37-1.77-9.86-5.31-13.48-3.54-3.61-7.89-5.41-13.07-5.41Z"/>
          <path class="cls-1" d="m858.69,232.29h5.98v8.02c2.08-2.96,4.22-5.12,6.41-6.49,3.02-1.82,6.2-2.73,9.53-2.73,2.25,0,4.39.44,6.41,1.33,2.02.88,3.67,2.05,4.96,3.52,1.28,1.46,2.39,3.56,3.33,6.29,1.99-3.64,4.47-6.41,7.45-8.3,2.98-1.89,6.19-2.84,9.62-2.84,3.21,0,6.04.81,8.5,2.43,2.46,1.63,4.28,3.89,5.47,6.79,1.19,2.9,1.79,7.26,1.79,13.06v25.35h-6.1v-25.35c0-4.98-.36-8.4-1.06-10.26-.71-1.86-1.92-3.37-3.64-4.5-1.71-1.14-3.76-1.71-6.15-1.71-2.89,0-5.54.85-7.94,2.56-2.4,1.71-4.15,3.99-5.25,6.83-1.11,2.84-1.66,7.6-1.66,14.26v18.18h-5.98v-23.77c0-5.61-.35-9.42-1.05-11.42-.7-2.01-1.91-3.62-3.65-4.83-1.74-1.21-3.8-1.81-6.19-1.81-2.76,0-5.34.83-7.75,2.5-2.4,1.67-4.18,3.91-5.33,6.72-1.16,2.82-1.73,7.13-1.73,12.94v19.67h-5.98v-46.44Z"/>
          <path class="cls-1" d="m940.69,232.29h5.98v8.02c2.08-2.96,4.21-5.12,6.41-6.49,3.01-1.82,6.19-2.73,9.53-2.73,2.25,0,4.39.44,6.41,1.33,2.02.88,3.68,2.05,4.96,3.52,1.28,1.46,2.39,3.56,3.33,6.29,1.99-3.64,4.47-6.41,7.45-8.3,2.98-1.89,6.19-2.84,9.63-2.84,3.2,0,6.03.81,8.49,2.43,2.46,1.63,4.28,3.89,5.48,6.79,1.19,2.9,1.79,7.26,1.79,13.06v25.35h-6.1v-25.35c0-4.98-.36-8.4-1.06-10.26-.71-1.86-1.92-3.37-3.64-4.5-1.72-1.14-3.77-1.71-6.15-1.71-2.89,0-5.54.85-7.93,2.56-2.4,1.71-4.15,3.99-5.25,6.83-1.1,2.84-1.66,7.6-1.66,14.26v18.18h-5.98v-23.77c0-5.61-.35-9.42-1.04-11.42-.7-2.01-1.91-3.62-3.64-4.83-1.74-1.21-3.8-1.81-6.19-1.81-2.76,0-5.35.83-7.75,2.5-2.4,1.67-4.18,3.91-5.33,6.72-1.16,2.82-1.73,7.13-1.73,12.94v19.67h-5.98v-46.44Z"/>
          <path class="cls-1" d="m1024.8,213.16c1.36,0,2.52.49,3.49,1.45.96.97,1.44,2.13,1.44,3.5s-.48,2.49-1.44,3.45c-.97.97-2.13,1.46-3.49,1.46s-2.48-.49-3.44-1.46c-.97-.97-1.45-2.11-1.45-3.45s.48-2.53,1.45-3.5c.96-.96,2.11-1.45,3.44-1.45Zm-2.96,19.12h5.98v46.44h-5.98v-46.44Z"/>
          <path class="cls-1" d="m1040.23,232.29h5.98v8.33c2.39-3.19,5.04-5.58,7.94-7.15,2.9-1.58,6.06-2.37,9.48-2.37s6.55.88,9.24,2.65c2.69,1.77,4.68,4.14,5.96,7.12,1.28,2.99,1.92,7.64,1.92,13.96v23.9h-5.98v-22.16c0-5.35-.22-8.92-.66-10.71-.69-3.07-2.02-5.38-3.98-6.93-1.96-1.55-4.53-2.33-7.69-2.33-3.61,0-6.85,1.19-9.71,3.59-2.86,2.39-4.74,5.35-5.65,8.88-.57,2.31-.85,6.52-.85,12.63v17.03h-5.98v-46.44Z"/>
          <path class="cls-1" d="m1133.58,232.29h5.98v37.01c0,6.51-.57,11.28-1.71,14.3-1.56,4.27-4.28,7.56-8.15,9.86-3.87,2.31-8.52,3.46-13.96,3.46-3.99,0-7.56-.56-10.74-1.69-3.17-1.13-5.75-2.65-7.74-4.54-2-1.9-3.83-4.68-5.51-8.33h6.49c1.77,3.07,4.05,5.35,6.84,6.83,2.79,1.48,6.26,2.22,10.39,2.22s7.51-.76,10.32-2.27c2.81-1.52,4.81-3.43,6.01-5.72,1.19-2.3,1.79-6.01,1.79-11.13v-2.39c-2.25,2.85-5,5.03-8.25,6.55-3.24,1.52-6.69,2.29-10.34,2.29-4.28,0-8.29-1.06-12.05-3.18-3.76-2.12-6.67-4.98-8.72-8.56-2.05-3.59-3.07-7.53-3.07-11.82s1.07-8.3,3.2-12.02c2.13-3.71,5.09-6.65,8.86-8.81,3.78-2.16,7.76-3.24,11.95-3.24,3.47,0,6.71.72,9.72,2.15,3.01,1.44,5.9,3.81,8.69,7.11v-8.06Zm-17.63,4.57c-3.38,0-6.53.81-9.43,2.45-2.9,1.63-5.18,3.9-6.83,6.79-1.65,2.89-2.48,6.01-2.48,9.37,0,5.09,1.71,9.3,5.12,12.63,3.41,3.32,7.84,4.99,13.27,4.99s9.92-1.65,13.26-4.95c3.34-3.3,5.01-7.64,5.01-13.02,0-3.51-.76-6.63-2.3-9.37-1.54-2.74-3.72-4.92-6.53-6.51-2.82-1.6-5.85-2.39-9.09-2.39Z"/>
          <path class="cls-1" d="m1177.51,215.94h12.51c7.17,0,12,.32,14.51.95,3.59.88,6.51,2.69,8.79,5.44,2.28,2.74,3.41,6.2,3.41,10.35s-1.1,7.64-3.32,10.36c-2.22,2.72-5.28,4.54-9.18,5.48-2.84.68-8.17,1.02-15.96,1.02h-4.49v29.2h-6.27v-62.79Zm6.27,6.15v21.3l10.63.13c4.29,0,7.44-.39,9.44-1.18,1.99-.78,3.55-2.04,4.69-3.79,1.14-1.75,1.71-3.7,1.71-5.86s-.56-4.03-1.71-5.77c-1.14-1.75-2.63-2.99-4.5-3.73-1.86-.74-4.92-1.11-9.16-1.11h-11.1Z"/>
          <path class="cls-1" d="m1274.57,232.29v46.44h-5.89v-7.99c-2.5,3.05-5.31,5.34-8.43,6.88-3.11,1.54-6.52,2.31-10.22,2.31-6.57,0-12.18-2.38-16.84-7.15-4.65-4.77-6.97-10.57-6.97-17.4s2.34-12.4,7.04-17.15c4.7-4.75,10.34-7.13,16.94-7.13,3.81,0,7.27.81,10.36,2.43,3.09,1.63,5.8,4.06,8.13,7.3v-8.54h5.89Zm-23.88,4.57c-3.32,0-6.4.81-9.21,2.45-2.82,1.63-5.06,3.93-6.72,6.88-1.66,2.96-2.5,6.09-2.5,9.38s.84,6.4,2.52,9.38c1.68,2.99,3.93,5.31,6.76,6.97,2.82,1.66,5.86,2.5,9.1,2.5s6.36-.83,9.29-2.48c2.93-1.65,5.18-3.88,6.76-6.69,1.58-2.82,2.37-5.98,2.37-9.51,0-5.37-1.77-9.86-5.31-13.48-3.54-3.61-7.89-5.41-13.07-5.41Z"/>
          <path class="cls-1" d="m1285.75,232.29h6.1v6.79c1.82-2.68,3.74-4.68,5.76-6,2.02-1.32,4.13-1.98,6.32-1.98,1.65,0,3.41.53,5.29,1.58l-3.11,5.04c-1.25-.55-2.31-.81-3.16-.81-1.99,0-3.91.82-5.76,2.46-1.85,1.64-3.26,4.18-4.23,7.62-.74,2.65-1.11,8-1.11,16.05v15.71h-6.1v-46.44Z"/>
          <path class="cls-1" d="m1319.51,215.04h5.98v17.24h9.48v5.16h-9.48v41.28h-5.98v-41.28h-8.15v-5.16h8.15v-17.24Z"/>
          <path class="cls-1" d="m1343.93,232.29h5.98v8.33c2.39-3.19,5.04-5.58,7.94-7.15,2.9-1.58,6.06-2.37,9.48-2.37s6.55.88,9.24,2.65c2.69,1.77,4.68,4.14,5.96,7.12,1.28,2.99,1.92,7.64,1.92,13.96v23.9h-5.98v-22.16c0-5.35-.22-8.92-.66-10.71-.69-3.07-2.02-5.38-3.98-6.93-1.96-1.55-4.53-2.33-7.69-2.33-3.61,0-6.85,1.19-9.71,3.59-2.86,2.39-4.74,5.35-5.65,8.88-.57,2.31-.85,6.52-.85,12.63v17.03h-5.98v-46.44Z"/>
          <path class="cls-1" d="m1436.34,263.32l5.04,2.64c-1.65,3.24-3.56,5.86-5.73,7.85-2.16,2-4.6,3.51-7.3,4.55-2.71,1.04-5.77,1.56-9.19,1.56-7.58,0-13.5-2.48-17.78-7.45-4.27-4.96-6.4-10.58-6.4-16.84,0-5.9,1.81-11.14,5.42-15.75,4.58-5.86,10.72-8.79,18.41-8.79s14.24,3,18.96,9.01c3.36,4.24,5.07,9.53,5.13,15.88h-41.78c.11,5.39,1.83,9.81,5.17,13.26,3.34,3.45,7.45,5.18,12.35,5.18,2.36,0,4.66-.41,6.9-1.23,2.23-.82,4.14-1.92,5.7-3.28,1.57-1.36,3.26-3.56,5.09-6.59Zm0-12.51c-.79-3.18-1.96-5.73-3.48-7.64-1.53-1.91-3.55-3.45-6.05-4.61-2.51-1.17-5.14-1.75-7.91-1.75-4.56,0-8.48,1.46-11.75,4.39-2.39,2.14-4.2,5.34-5.43,9.61h34.62Z"/>
          <path class="cls-1" d="m1451.79,232.29h6.1v6.79c1.82-2.68,3.74-4.68,5.76-6,2.02-1.32,4.13-1.98,6.32-1.98,1.65,0,3.41.53,5.29,1.58l-3.11,5.04c-1.25-.55-2.31-.81-3.16-.81-1.99,0-3.91.82-5.76,2.46-1.85,1.64-3.26,4.18-4.23,7.62-.74,2.65-1.11,8-1.11,16.05v15.71h-6.1v-46.44Z"/>
        </g>
      </g>
    </g>
  </g>
</svg>